<?xml version="1.0" encoding="UTF-8"?>
<svg id="Ebene_2" data-name="Ebene 2" xmlns="http://www.w3.org/2000/svg" viewBox="0 0 138.8 191.99">
  <defs>
    <style>
      .cls-1 {
        fill: #1d1d1b;
      }
    </style>
  </defs>
  <g id="Ebene_1-2" data-name="Ebene 1">
    <g>
      <path class="cls-1" d="M68.94,22.21c-.06-3.69-1.93-6.37-4.55-8.98,0,1.28-.02,2.32,0,3.36.04,1.62.1,3.23.18,4.85.04.77.56,1.03,1.25.99,1.01-.05,2.02-.14,3.11-.23M8.23,145.89c-.04-.42-.04-.75-.12-1.06-.96-3.9-1.93-7.8-2.92-11.7-.11-.45-.09-1.26-.86-1-.33.11-.62.75-.68,1.18-.45,3.74.78,7.21,1.87,10.68.37,1.18,1.25,1.84,2.71,1.89M58.87,114.3c.03,4.5-.07,8.86.06,13.22.21.04.41.08.61.12,1.78-3.88,3.37-7.84,5.1-11.87-1.96-.5-3.77-.96-5.77-1.47M65.51,64.94c.3-.33.41-.43.5-.55,3.95-5.67,7.95-11.3,11.81-17.03,1.88-2.8,2.47-5.95,1.58-9.31-1.1-4.13-3.36-7.57-6.29-10.58-2.23-2.29-6.06-1.36-7.11,1.66-.4,1.16-.65,2.43-.65,3.65-.05,10.13-.03,20.26-.02,30.4,0,.52.11,1.03.19,1.75M84.34,156.47c.23-.14.41-.22.53-.35.6-.62,1.29-1.19,1.76-1.91,2.6-3.99,5.14-8.01,7.69-12.02.95-1.49,1.18-3.02.1-4.55-.76-1.08-1.47-2.2-2.36-3.17-3.96-4.31-7.95-8.6-11.99-12.84-3.26-3.41-6.62-6.73-9.96-10.07-.27-.27-.76-.32-1.14-.47-.05.42-.21.86-.13,1.25.18.96.42,1.91.73,2.83,3.84,11.37,7.7,22.74,11.54,34.11.83,2.46,1.5,4.98,3.23,7.16M55.38,111.72c-2.08,1.57-4.15,3.07-6.15,4.66-7.81,6.2-15.59,12.44-23.41,18.62-1.81,1.43-2.44,3.05-1.84,5.34,1.5,5.71,3.88,11.08,6.1,16.51.35.85.84.84,1.36.05.15-.22.26-.46.39-.69,4.63-8.31,9.26-16.61,13.89-24.92,3.25-5.84,6.5-11.68,9.72-17.53.31-.55.86-1.15-.05-2.04M103.89,103.84c-.45-.02-.74-.05-1.04-.04-3.47.12-6.94.24-10.42.37-6.15.22-12.31.44-18.46.68-1.42.05-1.77.6-.96,1.75,2.16,3.08,4.18,6.33,6.73,9.07,3.25,3.5,6.95,6.6,10.49,9.84,2.12,1.93,4.31,3.8,6.47,5.68,1.07.93,1.68.73,2.07-.65.06-.22.09-.44.13-.66.56-2.89,1.12-5.77,1.67-8.66,1.1-5.73,2.19-11.47,3.32-17.36M98.32,63.27c-.19-.03-.38-.06-.57-.09-.12.2-.21.42-.35.59-5.37,6.39-10.84,12.7-16.08,19.19-4.06,5.03-7.4,10.57-10.27,16.38-.24.5-.25,1.11-.36,1.67.54.07,1.09.25,1.61.19,3.18-.38,6.36-.82,9.54-1.23,5.01-.64,10.03-1.28,15.04-1.92,1.91-.24,3.82-.46,5.73-.73,1.47-.21,1.76-.58,1.7-2.1-.02-.57-.13-1.13-.16-1.69-.38-6.98-1.25-13.89-3.01-20.67-.84-3.22-1.87-6.4-2.81-9.6M81.64,31.59c-.11.12-.22.24-.32.35.48.93,1.04,1.83,1.43,2.8.67,1.7,1.5,3.4,1.79,5.18.58,3.57-.93,6.63-2.94,9.48-4.6,6.51-9.17,13.02-13.79,19.52-1.61,2.26-2.52,4.69-2.28,7.51.08.91.4,1.4,1.38,1.36.87-.04,1.74-.03,2.61-.03,2.18,0,4.35,0,6.63,0-.07,1.1-.19,1.99-.16,2.89.02.87-.33,1.08-1.14,1.07-2.72-.05-5.44,0-8.16-.04-.9-.01-1.24.31-1.16,1.19.05.49,0,.98,0,1.47,0,3.67-.01,7.33.02,11,0,.44.28.88.43,1.32.35-.22.74-.41,1.05-.67.29-.24.53-.54.75-.85,3.11-4.27,6.22-8.54,9.31-12.84,5.44-7.58,10.86-15.16,16.27-22.75,1.86-2.6,2.35-5.54,1.79-8.63-1.26-7.06-4.93-12.72-10.35-17.3-.95-.8-2.11-1.36-3.17-2.02M61.65,28.08c-1.03.88-1.96,1.49-2.66,2.3-5.82,6.75-11.65,13.5-17.37,20.34-2.63,3.15-3.65,6.88-3.12,11.01.43,3.34,1.6,6.43,3.11,9.39,4.24,8.33,9.72,15.8,15.85,22.83,1.28,1.46,2.57,2.9,4.05,4.57v-17.08h-9.77v-3.84h9.91V28.08ZM30.08,72.55c-6.14,17.94-7.36,36.36-7.82,55.07,13.96-5.61,24.87-15.23,35.88-24.82-9.39-10.12-18.68-20.14-28.06-30.25M52.63,129.05c-.14-.02-.28-.03-.43-.05-.45.75-.99,1.46-1.35,2.25-1.75,3.88-3.47,7.78-5.17,11.69-2.83,6.5-5.63,13.02-8.46,19.52-.98,2.24-.73,4.2,1.01,6.02,4.25,4.45,9.33,7.49,15.28,9.01,4.92,1.25,9.32.18,13.12-3.27,2.24-2.03,4.47-4.07,6.82-5.97,1.94-1.57,2.4-3.42,1.78-5.73-3.09-11.4-6.16-22.81-9.25-34.21-.12-.44-.37-.84-.67-1.52-.33.69-.55,1.07-.7,1.48-.69,1.88-1.35,3.76-2.03,5.64-1.28,3.55-2.55,7.1-3.85,10.64-.12.33-.48.58-.72.87-.26-.29-.54-.57-.78-.88-.09-.11-.08-.29-.12-.43-1.12-3.83-2.23-7.66-3.35-11.48-.35-1.2-.75-2.38-1.12-3.57M0,121.19c4.04,0,8.09-.04,12.13.03,1.14.02,1.4-.4,1.44-1.42.12-3.51.31-7.02.48-10.53.22-4.45.44-8.91.66-13.36.01-.3,0-.6,0-.97-1.9-.1-3.77-.18-5.64-.3-1.28-.08-2.56-.16-3.83-.34-2.69-.38-3.32-1.83-1.63-3.95,2.31-2.89,4.72-5.7,7.09-8.54.75-.9,1.55-1.76,2.25-2.69.71-.93.56-1.49-.55-1.89-1.63-.59-3.29-1.08-4.93-1.61-.25-.08-.49-.18-.75-.27.03-.91.32-1.2,1.26-.94,1.74.48,3.52.81,5.27,1.23.44.1.87.25,1.28.45,1.38.69,1.75,1.73.81,2.92-2.08,2.63-4.29,5.17-6.45,7.73-.83.98-1.71,1.92-2.49,2.94-1.05,1.36-.76,2.38.9,2.74,2.43.52,4.88.9,7.34,1.24.25.03.78-.59.89-.99,1.03-3.71,1.84-7.48,3-11.13,2.86-9.01,6.98-17.42,12.28-25.25,4.09-6.05,8.69-11.7,13.49-17.19.27-.31.5-.66.75-.99,0,0,.04-.04.04-.04,4.49-3.91,8.94-7.88,13.5-11.71,1.57-1.32,2.21-2.76,2.17-4.79-.12-6.77-.1-13.53-.13-20.3,0-.37.04-.74.06-1.08,2.04-.36,2.36-.22,3.3,1.41,4.01,6.92,8.04,13.82,12.02,20.76.78,1.36,1.8,2.3,3.25,2.98,7.91,3.67,14.08,9.39,19.01,16.49,6.96,10.02,11.35,21.15,13.72,33.07,1.14,5.76,2.12,11.58,2.61,17.43.41,4.87.22,9.82-.08,14.7-.54,8.75-2.7,17.18-5.87,25.35-3.07,7.92-7.05,15.35-11.89,22.32-2.09,3.01-4.26,5.96-6.49,8.86-1.35,1.75-1.74,3.46-.8,5.56,1.17,2.61,2.06,5.35,3.2,7.97.93,2.15.53,3.85-1.07,5.55-2.87,3.05-5.59,6.24-8.37,9.38h-.23c-1.46-5.74-2.93-11.48-4.42-17.33-.48.32-.84.58-1.22.81-2.69,1.6-5.28,3.39-8.09,4.74-5.46,2.61-11.23,3.58-17.28,2.51-5.83-1.03-10.86-3.72-15.53-7.23-.95-.71-1.87-1.46-2.92-2.28-2.05,6.21-4.03,12.24-6.03,18.29-1.61-.77-3.9-2.95-5.24-4.69-1.54-2.01-1.92-3.96-.81-6.39,1.65-3.59,3-7.33,4.47-11,.53-1.33.85-2.74.17-4.06-1.24-2.44-2.63-4.82-4-7.31-2.93,1.32-5.72,2.59-8.6,3.89,1.11,2.62,2.2,5.13,3.24,7.67.21.51.97,1.16.07,1.64-.79.42-1.09-.4-1.49-.86-.07-.09-.12-.19-.19-.28-3.85-5.34-6.47-11.29-8.57-17.5-.33-.96.06-1.29.95-1.52,1.72,2.98,3.42,5.94,5.15,8.93,2.97-1.4,5.82-2.74,8.65-4.07-1.12-3.22-2.19-6.26-3.24-9.29-2.28.57-4.45,1.16-6.65,1.67-3.31.77-5.82-.39-7.19-3.38-2-4.38-2.85-8.98-2.12-13.77.22-1.48.81-2.91,1.26-4.49,1.46.93,2.33,1.95,2.73,3.3.35,1.19.55,2.43.91,3.62.44,1.47.98,2.92,1.47,4.38.11-.03.22-.06.33-.09.79-3.95,1.58-7.9,2.37-11.84.92-.11,1.39.09,1.25,1.07-.67,4.78-1.32,9.57-1.96,14.36-.2,1.48-.37,2.96-.58,4.7,1.74-.1,3.29-.08,4.8-.31,2.14-.33,2.62-1.16,2.25-3.34-1.04-6.09-2.08-12.18-3.1-18.27-.13-.77-.4-1.19-1.28-1.21-4.19-.13-8.38-.32-12.57-.48v-1.36Z"/>
      <path class="cls-1" d="M138.8,99.3c-.8.4-1.37.8-2.01.97-1.26.36-2.57.58-3.85.89-2.23.53-2.87,1.38-2.79,3.67.01.38.12.77.05,1.13-.08.37-.32.71-.48,1.06-.12-.03-.25-.06-.37-.09-.2-1.51-.39-3.01-.61-4.7-2.57.5-5.1,1-7.83,1.53,2.37,3.54,4.65,6.97,7.04,10.55h-5.47c.46.87.85,1.57,1.22,2.28.23.43.47.86.67,1.31,1.12,2.52-.07,4.46-2.85,4.62-1.21.07-2.41.12-3.62.2-.32.02-.63.11-.95.29,3.69,1.4,7.8,1.75,10.77,4.76-2.84-.71-5.67-1.41-8.51-2.13-.95-.24-1.9-.46-2.83-.76-.75-.24-1.07-.01-1.29.74-.82,2.78-1.7,5.55-2.57,8.32-.1.33-.26.65-.39.97-.15-.01-.3-.03-.44-.04,0-.43-.09-.87.01-1.27,1.02-4.1,2.07-8.18,3.09-12.28.21-.83.71-1.05,1.49-1.02,2.04.07,4.08.14,6.02-.7.2-.09.4-.18.62-.29-.62-1.52-1.55-2.66-2.92-3.53-.9-.57-1.65-1.42-2.38-2.21-.23-.24-.33-.79-.21-1.09.08-.22.63-.37.96-.36,1.74.05,3.47.16,5.2.25.13,0,.27-.03.6-.07-2.27-3.26-4.46-6.39-6.67-9.55,4.03-1.33,19.96-4.05,21.3-3.44"/>
      <path class="cls-1" d="M20.15,58.42c-.79-1.93-.25-2.78,1.66-2.8.45,0,.91-.02,1.36.06,3.31.6,4.43,2.89,2.68,5.78-2.18,3.62-4.48,7.17-6.79,10.71-.96,1.46-2.31,2.42-4.18,2.13-1.53-.24-2.21-1.48-2.76-2.74-.87-2-.53-4.08-.28-6.14.5-4.04,2.08-7.62,4.74-10.71.44-.52.79-1.46,1.73-.99.1.05-.2,1.18-.49,1.71-1.53,2.79-2.15,5.86-2.85,8.91-.31,1.36-.63,2.72-.86,4.09-.14.87-.36,1.87.61,2.46.92.56,1.73.11,2.51-.4,3.72-2.46,5.56-6.16,6.74-10.27.34-1.17-.78-2.13-2.2-2.02-.52.04-1.04.14-1.63.21"/>
      <path class="cls-1" d="M2.8,115.28c1.41-1.17,1.44-2.43,1.46-3.68.05-3.81.07-7.62.14-11.43.01-.63.23-1.26.35-1.89.15,0,.3,0,.45,0,.09.55.25,1.1.25,1.65.03,4.65.04,9.3.05,13.95,0,.41,0,.82,0,1.32h4.73v-1.18c0-4.19,0-8.39,0-12.59,0-.3-.07-.64.05-.89.12-.26.44-.42.67-.62.13.23.38.46.38.7.17,4.98.33,9.97.44,14.96.04,1.61-.57,2.21-2.17,2.23-2.34.03-4.68,0-7.02-.07-1.33-.04-1.83-.57-1.84-1.92-.02-5.63,0-11.26-.02-16.89,0-.57.13-1.07.76-.94.24.04.54.62.54.95.04,4.42-.02,8.85.06,13.27.02.96.44,1.92.73,3.08"/>
      <path class="cls-1" d="M45.08,38.05l-.04.04c-3.22-.9-5.94-2.55-7.92-5.29-1.28-1.77-.73-3.58,1.43-4.21,3.11-.91,6.26-1.66,9.4-2.45,1.17-.29,2.36-.48,3.53-.78,1.15-.3,1.28-.63.75-1.68-.89-1.78-1.82-3.54-2.88-5.61,1.77.74,2.81,1.85,3.73,3.06.58.77,1.06,1.65,1.46,2.54.94,2.1.18,3.55-2.08,4.01-2.03.42-4.08.72-6.1,1.17-2.46.55-4.89,1.2-7.51,1.84.25.36.39.61.58.81,1.61,1.75,3.25,3.48,4.85,5.25.34.37.55.86.82,1.3"/>
      <path class="cls-1" d="M128.37,119.29c.92.29,1.83.62,2.77.84.24.06.56-.21.85-.33-.15-.29-.23-.72-.47-.83-.64-.3-1.34-.48-2.03-.68-.82-.24-1.23.04-1.13,1M131.77,123.31c-1.23-1.64-3.55-2.03-4.61-.84,1.09,1.3,2.96,1.66,4.61.84M133.9,116.79c-.34-.69-.6-1.11-.75-1.57-.07-.23.06-.52.1-.78.26.06.7.05.77.2.41.9,1.03,1.84,1.01,2.76-.02,1.87-.35,3.74-.65,5.6-.35,2.2-1.32,2.97-3.55,2.92-.82-.02-1.66-.1-2.46-.27-1.49-.31-2.5-1.21-2.87-2.7-.43-1.74-.66-3.5.2-5.19.91-1.79,2.13-2.33,4.09-1.88,1.27.29,2.55.56,4.09.89"/>
      <path class="cls-1" d="M25.07,43.94c-.09,1.46-.16,2.57-.24,3.87.97-.38,1.81-.71,2.8-1.09v3.55c1.5-.26,2.7-.81,3.63-1.88,2.34-2.71,4.69-5.42,7.03-8.13.24-.28.49-.54.74-.81.86.88.84,1.65-.1,2.82-1.82,2.27-3.67,4.51-5.51,6.76-.62.76-1.25,1.51-1.88,2.26-1.93,2.31-3.81,2.42-5.93.27-.92-.94-1.76-1.97-2.56-3.02-.93-1.19-.85-2.04.23-3.08.48-.46,1.02-.87,1.8-1.52"/>
    </g>
  </g>
</svg>
